<?xml version="1.0"?>
<svg version="1.1" xmlns="http://www.w3.org/2000/svg" width="217" height="52" style=""><path fill="#d91e63" d="M18.64,41.12l0-1.68l2.8-0.56l0-15.12l-3.64,0l-0.7,2.8l-1.82,0l0-5.04l15.26,0l0,5.04l-1.82,0l-0.7-2.8l-3.64,0l0,15.12l2.8,0.56l0,1.68l-8.54,0z M38.6208,19.56l0,8.456c0.868-0.728,2.828-2.016,4.9-2.016c3.08,0,4.48,1.96,4.48,5.04l0,7.84l2.1,0.7l0,1.54l-6.72,0l0-1.54l1.82-0.672l0-7.588c0-1.96-0.616-2.94-2.436-2.94c-2.38,0-4.144,2.24-4.144,2.24l0,8.26l1.82,0.7l0,1.54l-7,0l0-1.54l2.38-0.7l0-17.08l-2.38-0.56l0-1.54z M66.5816,34.12l-9.66,0c0,3.08,1.652,5.04,4.06,5.04c2.8,0,4.704-1.54,4.704-1.54l0.98,1.456s-2.604,2.324-5.964,2.324c-4.48,0-6.72-2.94-6.72-7.56c0-4.48,2.8-7.84,6.86-7.84s5.88,2.38,5.88,6.58c0,0.7-0.14,1.484-0.14,1.54z M57.0336,32.02l6.72,0c0-2.1-0.812-3.836-3.052-3.836s-3.5,1.736-3.668,3.836z M81.9032,38.88l0-15.12l-2.38-0.56l0-1.54l5.32-0.14l3.5,0c5.46,0,8.82,3.36,8.82,9.52s-3.64,10.08-9.24,10.08l-8.4,0l0-1.68z M84.8432,38.88l3.22,0c3.5,0,5.88-2.38,5.88-7.7c0-5.18-2.24-7.42-5.74-7.42l-3.36,0l0,15.12z M105.524,28.24l3.36,9.8l3.08-9.66l-1.96-0.42l0-1.54l6.636-0.14l0,1.68l-1.82,0.28l-3.976,11.088c-1.484,3.892-2.94,8.512-7.56,8.512c-0.7,0-1.792-0.14-1.792-0.14l0.252-1.96l1.4,0c1.96,0,3.22-1.848,4.452-4.564l-5.012-12.796l-1.68-0.42l0-1.54l6.58-0.14l0,1.68z M124.4408,26.28l0.252,1.988c0.672-0.588,2.884-2.268,5.208-2.268c3.08,0,4.48,1.96,4.48,5.04l0,7.84l2.1,0.7l0,1.54l-6.72,0l0-1.54l1.82-0.7l0-7.56c0-1.96-0.7-2.94-2.52-2.94c-2.38,0-4.06,2.24-4.06,2.24l0,8.26l1.82,0.7l0,1.54l-7,0l0-1.54l2.38-0.7l0-10.36l-2.38-0.56l0-1.54z M141.4816,30.62l-0.14-3.5s3.08-1.12,5.46-1.12c3.248,0,5.18,1.12,5.18,4.34l0,8.54l2.24,0.56l0,1.54l-4.34,0.14l-0.588-1.96c-0.952,0.952-2.632,2.24-4.592,2.24c-2.66,0-4.2-1.54-4.2-4.2c0-3.22,2.52-4.34,6.44-4.34l2.24,0l0-2.24c0-1.68-0.98-2.52-2.66-2.52s-2.828,0.42-2.828,0.42l-0.392,2.1l-1.82,0z M149.1816,34.68l-1.96,0c-2.8,0-3.864,0.7-3.864,2.38c0,1.26,0.784,2.1,2.044,2.1c2.1,0,3.78-2.24,3.78-2.24l0-2.24z M160.2304,36.64l0.308,2.408s0.84,0.252,2.352,0.252c1.68,0,3.164-0.476,3.164-2.212c0-3.024-7.812-1.624-7.812-6.72c0-2.912,2.24-4.368,5.124-4.368c2.212,0,4.788,0.84,4.788,0.84l-0.084,3.78l-1.82,0l-0.448-2.184s-0.868-0.336-2.268-0.336c-1.428,0-2.492,0.448-2.492,1.876c0,2.996,7.812,1.848,7.812,6.636c0,3.22-2.8,4.788-6.16,4.788c-2.576,0-4.424-0.616-4.424-0.616l0-4.144l1.96,0z M182.2552,26.42l0,2.1l-4.06,0l0,8.988c0,1.288,0.616,1.708,1.4,1.708c0.672,0,1.456-0.308,2.184-0.7l0.756,1.484c-1.26,0.924-2.52,1.4-3.92,1.4c-1.68,0-3.22-0.924-3.22-4.06l0-8.82l-2.8,0l0-1.82l2.8-0.28l0-3.528l2.8-0.56l0,4.088l4.06,0z M189.916,28.24l3.36,9.8l3.08-9.66l-1.96-0.42l0-1.54l6.636-0.14l0,1.68l-1.82,0.28l-3.976,11.088c-1.484,3.892-2.94,8.512-7.56,8.512c-0.7,0-1.792-0.14-1.792-0.14l0.252-1.96l1.4,0c1.96,0,3.22-1.848,4.452-4.564l-5.012-12.796l-1.68-0.42l0-1.54l6.58-0.14l0,1.68z"/><path fill="#" d=""/></svg>
